<?xml version="1.0" ?><!DOCTYPE svg  PUBLIC '-//W3C//DTD SVG 1.1//EN'  'http://www.w3.org/Graphics/SVG/1.1/DTD/svg11.dtd'><svg enable-background="new 0 0 50 50" id="Layer_1" version="1.1" viewBox="0 0 50 50" xml:space="preserve" xmlns="http://www.w3.org/2000/svg" xmlns:xlink="http://www.w3.org/1999/xlink"><g id="in"><path d="M21.6,21.1h4.7v2.4l0,0c0.7-1.2,2.3-2.4,4.7-2.4c5,0,5.5,2.9,5.5,7.1v8.7h-4.7v-7.9   c0-1.8,0.1-3.9-2.4-3.9c-3.2,0-3.2,1.9-3.2,3.9v7.9h-4.7L21.6,21.1L21.6,21.1z" fill="#0E76A8" id="n_1_"/><rect fill="#0E76A8" height="15.8" id="_x7C__1_" width="4.7" x="13.8" y="21.1"/><circle cx="16.1" cy="15.9" fill="#0E76A8" id="_x28____x29__1_" r="2.8"/></g><path d="M25,1C11.7,1,1,11.7,1,25s10.7,24,24,24s24-10.7,24-24S38.3,1,25,1z M25,44C14.5,44,6,35.5,6,25S14.5,6,25,6  s19,8.5,19,19S35.5,44,25,44z" fill="#0E76A8"/></svg>